<svg xmlns="http://www.w3.org/2000/svg" id="Layer_1" width="132" height="132" viewBox="0 0 132 132"><style>.st22,.st34{stroke-miterlimit:10;stroke-width:2.5;stroke-linejoin:round}.st22{fill:none;stroke:#6ac9d0;stroke-linecap:round}.st34{stroke:#c3e9ec;fill:#fff}.st34,.st35,.st36{stroke-linecap:round}.st35{fill:#fff;stroke-width:2.5;stroke-linejoin:round;stroke-miterlimit:10;stroke:#91d5d9}.st36{stroke:#c0e869}.st36,.st37,.st38{fill:none;stroke-width:2.5;stroke-miterlimit:10}.st37{stroke-linecap:round;stroke:#ef5034}.st38{stroke:#f59685}.st38,.st39,.st40{stroke-linecap:round}.st39{fill:none;stroke:#f59122}.st39,.st40,.st41{stroke-width:2.5;stroke-miterlimit:10}.st40{fill:#fff;stroke:#6ac9d0;stroke-linejoin:round}.st41{stroke-linecap:round;fill:none;stroke:#96d805}</style><path d="M9.6 1.7h61.3v82.1H9.6zM19.1 15.3h42.2M19.1 26.9h42.2M19.1 38.5h42.2M19.1 50.1h42.2M19.1 61.7h27.6" class="st34"/><g><path d="M35.4 24.9h61.3V107H35.4zM44.9 38.5h42.2M44.9 50.1h42.2" class="st35"/><path d="M70.4 50.1h10.5" class="st37"/><path d="M44.9 61.7h42.2M44.9 73.2h42.2M44.9 84.9h27.6" class="st35"/><path d="M53.7 61.8h13.8" class="st38"/><path d="M48.7 84.9h7.5" class="st36"/></g><g><path d="M70.7 108.1h42.2" class="st39"/><path d="M61.1 48.1h61.3v82.1H61.1z" class="st40"/><path d="M70.7 61.7h42.2" class="st22"/><path d="M78 61.7h20.3" class="st41"/><path d="M70.7 73.3h42.2" class="st22"/><path d="M89.3 73.3h9" class="st41"/><path d="M96.2 73.3h10.5" class="st37"/><path d="M70.7 84.9h42.2M70.7 96.4h42.2" class="st22"/><path d="M93.4 96.4h13.8" class="st41"/><path d="M70.7 108.1h27.6" class="st22"/><path d="M78.4 96.4h13.8" class="st37"/><path d="M71.1 119.5h13.8M97.7 108.1h15.6" class="st41"/></g></svg>