<svg xmlns="http://www.w3.org/2000/svg" width="103" height="101.4" viewBox="0 0 103 101.4"><style>.st0{fill:#f05135}.st10{stroke-width:2.5;stroke-miterlimit:10;stroke:#6acad1}.st10,.st16{fill:#e0f2f3}.st17,.st18{stroke-linejoin:round;stroke-miterlimit:10}.st17{stroke:#d3d5db;fill:#d3d5db}.st18{stroke-width:2.5;stroke:#6acad1}.st18,.st22{fill:#fff}.st29{fill:#063b54}.st40{fill:none;stroke-miterlimit:10;stroke-width:2;stroke:#f05135}</style><circle id="Layer_3" cx="51.7" cy="50.7" r="50.7" class="st16"/><g id="stuffs"><path d="M84.9 56.1H17.8c-.6 0-1-.5-1-1V22.3c0-.5.4-1 1-1h67.1c.5 0 1 .5 1 1v32.8c0 .6-.4 1-1 1z" class="st29"/><path d="M101.3 88.5V94c0 .7-.5 1.2-1.1 1.2H3.1c-.6 0-1.1-.6-1.1-1.2v-5.5" class="st17"/><path d="M90.6 15H12.2c-.6 0-1.1.6-1.1 1.2V63h80.7V16.3c-.1-.7-.6-1.3-1.2-1.3zm-3.5 42.8c-.7.7-7.1 1-8.9 1-5.2 0-23.2-.5-23.7-.5h-9.6c-.6 0-27.3.6-28.1-.1-.7-.7-1.4-2.9-1.2-4 0-.4-.5-31.5.1-32.1 1.5-1.3 3.3-1.8 5.1-2 .7-.1 1.4-.1 2.2-.2 7.1-.5 49.6-.5 55.5-.4 10.6.3 8.6 2.1 8.3 8.5-.3 8 1.3 28.8.3 29.8zm14.2 26.5l-9-19.9c0-.7-.5-1.2-1.1-1.2H11.6c-.6 0-1.1.6-1.1 1.2L2 84.3v4.4c0 .7.5 1.2 1.1 1.2h97.1c.6 0 1.1-.6 1.1-1.2v-4.1h-.1c.1-.1.1-.2.1-.3zm-35.6-4.8l-.3.3c-.2.4-.5.7-1.1.8H64c-1 .3-2.2.3-3.2.3-3.4.1-6.8-.1-10.3-.3-4.9.9-9.7 1.8-14.5-.1-.6-.2-1.1-.8-.9-1.5.1-.4.3-.9.5-1.6.1-1.5.4-2.6 1-3.4.1-.2.1-.4.1-.5.1-1.1 1.4-1.5 2.1-1 1.2-.4 2.8-.5 4.6-.4 4.2.1 8.3.6 12.5.3 2.2-.1 4.7-.6 6.8.2 2.6 1 5.1 4.3 3 6.9z" class="st22"/><path d="M101.3 84.3v5.5c0 .7-.5 1.2-1.1 1.2H3.1c-.6 0-1.1-.6-1.1-1.2v-5.5" class="st18"/><path d="M22 36.6h-3.6c-2.2 0-4-1.8-4-4v-.3c0-2.2 1.8-4 4-4H22c2.2 0 4 1.8 4 4v.3c0 2.2-1.8 4-4 4zm63 0h-3.6c-2.2 0-4-1.8-4-4v-.3c0-2.2 1.8-4 4-4H85c2.2 0 4 1.8 4 4v.3c0 2.2-1.8 4-4 4zm-47.3 0H34c-2.2 0-4-1.8-4-4v-.3c0-2.2 1.8-4 4-4h3.6c2.2 0 4 1.8 4 4v.3c.1 2.2-1.7 4-3.9 4z" class="st40"/><path d="M33.4 33.9H22.5c-.6 0-1.1-.5-1.1-1.1 0-.6.5-1.1 1.1-1.1h10.9c.6 0 1.1.5 1.1 1.1 0 .6-.5 1.1-1.1 1.1zm15.6 0H38c-.6 0-1.1-.5-1.1-1.1 0-.6.5-1.1 1.1-1.1h11c.6 0 1.1.5 1.1 1.1-.1.6-.5 1.1-1.1 1.1zm15.7 0H53.8c-.6 0-1.1-.5-1.1-1.1 0-.6.5-1.1 1.1-1.1h10.9c.6 0 1.1.5 1.1 1.1 0 .6-.5 1.1-1.1 1.1zm15.8 0H69.6c-.6 0-1.1-.5-1.1-1.1 0-.6.5-1.1 1.1-1.1h10.9c.6 0 1.1.5 1.1 1.1 0 .6-.5 1.1-1.1 1.1z" class="st0"/><path d="M53.2 36.6h-3.6c-2.2 0-4-1.8-4-4v-.3c0-2.2 1.8-4 4-4h3.6c2.2 0 4 1.8 4 4v.3c0 2.2-1.8 4-4 4zm15.7 0h-3.6c-2.2 0-4-1.8-4-4v-.3c0-2.2 1.8-4 4-4h3.6c2.2 0 4 1.8 4 4v.3c0 2.2-1.8 4-4 4zM76.8 50h-3.6c-2.2 0-4-1.8-4-4v-.3c0-2.2 1.8-4 4-4h3.6c2.2 0 4 1.8 4 4v.3c0 2.2-1.8 4-4 4zm-47.3 0h-3.6c-2.2 0-4-1.8-4-4v-.3c0-2.2 1.8-4 4-4h3.6c2.2 0 4 1.8 4 4v.3c0 2.2-1.8 4-4 4z" class="st40"/><path d="M25.2 47.3H14.3c-.6 0-1.1-.5-1.1-1.1 0-.6.5-1.1 1.1-1.1h10.9c.6 0 1.1.5 1.1 1.1 0 .6-.5 1.1-1.1 1.1zm15.6 0h-11c-.6 0-1.1-.5-1.1-1.1 0-.6.5-1.1 1.1-1.1h10.9c.6 0 1.1.5 1.1 1.1.1.6-.4 1.1-1 1.1zm15.7 0H45.6c-.6 0-1.1-.5-1.1-1.1 0-.6.5-1.1 1.1-1.1h10.9c.6 0 1.1.5 1.1 1.1 0 .6-.5 1.1-1.1 1.1zm15.8 0H61.4c-.6 0-1.1-.5-1.1-1.1 0-.6.5-1.1 1.1-1.1h10.9c.6 0 1.1.5 1.1 1.1 0 .6-.5 1.1-1.1 1.1zm17.1 0h-11c-.6 0-1.1-.5-1.1-1.1 0-.6.5-1.1 1.1-1.1h10.9c.6 0 1.1.5 1.1 1.1 0 .6-.5 1.1-1 1.1z" class="st0"/><path d="M45 50h-3.6c-2.2 0-4-1.8-4-4v-.3c0-2.2 1.8-4 4-4H45c2.2 0 4 1.8 4 4v.3c0 2.2-1.8 4-4 4zm15.7 0H57c-2.2 0-4-1.8-4-4v-.3c0-2.2 1.8-4 4-4h3.6c2.2 0 4 1.8 4 4v.3c.1 2.2-1.7 4-3.9 4z" class="st40"/><path d="M100.2 85.5H3.1c-.6 0-1.1-.5-1.1-1.2l8.5-19.9c0-.7.5-1.2 1.1-1.2h79.6c.6 0 1.1.6 1.1 1.2l9 19.9c0 .7-.5 1.2-1.1 1.2zM90.6 15H12.2c-.6 0-1.1.6-1.1 1.2V63h80.7V16.3c-.1-.7-.6-1.3-1.2-1.3zm-4.7 39.7c0 1.3-1.1 2.3-2.3 2.3H19.2c-1.3 0-2.3-1.1-2.3-2.3V23.3c0-1.3 1.1-2.3 2.3-2.3h64.4c1.3 0 2.3 1.1 2.3 2.3v31.4z" class="st18"/><path d="M65.5 80.2H35.4c-.5 0-1-.7-1-1.6l1.4-6c0-.9.4-1.6 1-1.6H64c.5 0 1 .7 1 1.6l1.4 6c.1.9-.4 1.6-.9 1.6z" class="st10"/></g></svg>