<svg xmlns="http://www.w3.org/2000/svg" id="Layer_2" width="297.8" height="151.2" viewBox="0 0 297.8 151.2"><style>.st1,.st2{fill:#e0f2f3;stroke:#6bcad0;stroke-width:2.5;stroke-miterlimit:10}.st2{fill:#fff}.st7{fill:#f05234}.st11{stroke:#083b54;stroke-width:2.5;stroke-miterlimit:10;fill:#d3d4db}.st21{fill:#6bcad0}.st22{opacity:.2;fill:none;stroke:#f59223}.st22,.st23,.st24{stroke-miterlimit:10}.st23{stroke-linecap:round;fill:none;stroke:#6bcad0;stroke-width:2}.st24{fill:#f05234;stroke:#ef5434;stroke-width:.7758;stroke-linejoin:round}</style><ellipse cx="148.7" cy="48" class="st22" rx="73.8" ry="27.3"/><ellipse cx="148.7" cy="54.5" class="st22" rx="109.1" ry="40.3"/><ellipse cx="148.7" cy="59.7" class="st22" rx="139" ry="51.3"/><path d="M287.6 64.1l-23.9 26M216.2 86.4l47.5 3.7-6.5-32.5M57.2 74.7l41.1-34.3M50.4 38.4l47.9 1.2M12.4 64.3l85.9-24.7M135.3 74.4l-37-34.8M98.3 40.4l-25.7 61.8M98.7 40.7l23.3 70.4M130.7 8.9L98.3 40.4" class="st23"/><circle cx="98.3" cy="39.6" r="17.4" class="st11"/><circle cx="74.9" cy="102.2" r="10.8" class="st2"/><path d="M216.2 86.4l-28.5-33.5 15.1-40.8M173.6 23.2l14.1 28.9M182.9 109.1l33.3-22.7" class="st23"/><circle cx="216.2" cy="86.4" r="10.8" class="st2"/><circle cx="130.7" cy="8.9" r="7.1" class="st1"/><circle cx="57.2" cy="74.7" r="8.9" class="st1"/><circle cx="263.7" cy="90.1" r="8.9" class="st1"/><circle cx="12.4" cy="64.3" r="11.1" class="st1"/><circle cx="50.4" cy="38.4" r="6.5" class="st2"/><circle cx="187.7" cy="52.1" r="7.6" class="st2"/><circle cx="287.6" cy="64.1" r="6.5" class="st11"/><circle cx="173.6" cy="23.2" r="6.5" class="st2"/><path d="M253.4 25.4l3.8 32.2-38.9-16.9" class="st23"/><circle cx="182.9" cy="109.1" r="8.4" class="st11"/><ellipse cx="135.3" cy="74.4" class="st1" rx="7.5" ry="7.3"/><ellipse cx="253.4" cy="25.4" class="st1" rx="8.2" ry="8"/><ellipse cx="202.8" cy="12.1" class="st1" rx="7.5" ry="7.3"/><circle cx="121.8" cy="109.1" r="7.9" class="st1"/><path d="M75.4 14.9l6.8 15.7 24.8-7.1-2.7-16.8-4.1 8-5.9-5.2-2.8 7.7-6.1-5.2-2.4 7.6z" class="st24"/><ellipse cx="75.4" cy="14.9" class="st7" rx="1.8" ry="1.8" transform="rotate(-15.888 75.385 14.901)"/><ellipse cx="85.2" cy="11.3" class="st7" rx="1.8" ry="1.8" transform="rotate(-15.888 85.21 11.302)"/><ellipse cx="94" cy="8.8" class="st7" rx="1.8" ry="1.8" transform="rotate(-15.888 94.012 8.797)"/><ellipse cx="104.3" cy="6.7" class="st7" rx="1.8" ry="1.8" transform="rotate(-15.888 104.273 6.682)"/><circle cx="218.3" cy="40.7" r="8.7" class="st11"/><circle cx="257.2" cy="57.6" r="6.5" class="st2"/><path d="M216.3 150h.1c.6 0 1.1-.3 1.5-.7l8-10c.7-.9.6-2.1-.3-2.8-.9-.7-2.1-.6-2.8.3l-6.6 8.3-2.4-2.4c-.8-.8-2-.8-2.8 0-.8.8-.8 2 0 2.8l4 4c.3.3.8.5 1.3.5z" class="st21"/><path d="M85.9 143l4-4c.7-.7.7-1.8 0-2.5s-1.8-.7-2.5 0l-4 4-4-4c-.7-.7-1.8-.7-2.5 0s-.7 1.8 0 2.5l4 4-4 4c-.7.7-.7 1.8 0 2.5.3.3.8.5 1.2.5.4 0 .9-.2 1.2-.5l4-4 4 4c.3.3.8.5 1.2.5.4 0 .9-.2 1.2-.5.7-.7.7-1.8 0-2.5l-3.8-4z" class="st7"/></svg>